<?xml version='1.0' encoding='utf-8'?>
<svg xmlns="http://www.w3.org/2000/svg" xmlns:cc="http://creativecommons.org/ns#" xmlns:dc="http://purl.org/dc/elements/1.1/" xmlns:rdf="http://www.w3.org/1999/02/22-rdf-syntax-ns#" width="446.4pt" height="273.6pt" viewBox="0 0 446.4 273.6" version="1.1">
 <metadata>
  <rdf:RDF>
   <cc:Work>
    <dc:type rdf:resource="http://purl.org/dc/dcmitype/StillImage" />
    <dc:date>2026-09-28T03:23:55.585108</dc:date>
    <dc:format>image/svg+xml</dc:format>
    <dc:creator>
     <cc:Agent>
      <dc:title>Matplotlib v3.11.2, https://matplotlib.org/</dc:title>
     </cc:Agent>
    </dc:creator>
   </cc:Work>
  </rdf:RDF>
 </metadata>
 <defs>
  <style type="text/css">*{stroke-linejoin: round; stroke-linecap: butt}</style>
 </defs>
 <g id="figure_1">
  <g id="patch_1">
   <path d="M 0 273.6  L 446.4 273.6  L 446.4 0  L 0 0  z " style="fill: #ffffff" />
  </g>
  <g id="axes_1">
   <g id="patch_2">
    <path d="M 33.858 248.477656  L 435.6 248.477656  L 435.6 24.72  L 33.858 24.72  z " style="fill: #ffffff" />
   </g>
   <g id="matplotlib.axis_1">
    <g id="text_1">
     <g transform="rotate(-0 234.729 260.076094)"><g transform="translate(200.5444,260.0761) scale(1,-1)"><g transform="translate(0.0000,0) scale(0.00488281)"><path d="M1808 1104V0Q1808 -96 1752.0 -144.0Q1696 -192 1592 -192Q1512 -192 1408 -184L1368 -32Q1512 -40 1584 -40Q1648 -40 1648 40V952H1360Q1344 760 1312 608Q1472 488 1592 368L1488 224Q1384 360 1280 472Q1224 248 1064 88L952 200Q1168 432 1192 952H888Q880 816 856 704Q992 608 1088 520L984 376Q904 480 816 568Q752 328 568 168L456 280Q696 496 728 952H408V-192H248V1104H736V1408H120V1560H1928V1408H1360V1104ZM1200 1408H896V1104H1200Z" style="fill: #000000; stroke: none" /></g><g transform="translate(10.0000,0) scale(0.00488281)"><path d="M136 1288H392V1656H544V1288H784V1136H544V1040Q696 856 808 680L704 528Q624 696 544 824V-184H392V688Q304 424 184 248L72 360Q304 704 376 1136H136ZM1048 936Q1032 280 792 -152L648 -56Q888 368 888 1072V1504Q1336 1552 1712 1648L1832 1520Q1480 1416 1048 1376V1080H1816Q1784 640 1560 288Q1720 104 1944 -32L1824 -168Q1616 -40 1464 152Q1288 -48 1040 -176L944 -32Q1200 80 1360 280Q1144 600 1080 936ZM1240 936Q1296 656 1456 416Q1600 648 1640 936Z" style="fill: #000000; stroke: none" /></g><g transform="translate(20.0000,0) scale(0.00488281)"><path d="M128 1288H424V1656H584V1288H864V1136H584V1056Q760 864 888 680L784 528Q680 704 584 840V-184H424V720Q328 448 160 248L48 360Q312 688 408 1136H128ZM1864 1560V-184H1712V-8H1088V-184H936V1560ZM1088 1088H1712V1416H1088ZM1088 616H1712V944H1088ZM1088 136H1712V472H1088Z" style="fill: #000000; stroke: none" /></g><g transform="translate(30.0000,0) scale(0.00488281)"><path d="M128 1560H792Q760 1024 648 632Q760 440 856 232L728 112Q656 272 576 424Q432 72 200 -136L104 0Q352 216 472 616Q312 888 136 1144L256 1232Q400 1032 536 824Q592 1032 616 1400H128ZM880 1240H1536V1656H1696V1240H1936V1088H1696V40Q1696 -80 1652.0 -128.0Q1608 -176 1496 -176Q1368 -176 1248 -144L1216 24Q1344 -16 1472 -16Q1504 -16 1520.0 0.0Q1536 16 1536 80V1088H880ZM1112 952Q1264 704 1368 416L1208 344Q1112 648 968 888Z" style="fill: #000000; stroke: none" /></g><g transform="translate(40.0000,0) scale(0.00488281)"><path d="M568 1656 728 1608Q640 1376 520 1152V-184H360V896Q264 768 160 656L80 816Q424 1216 568 1656ZM696 1312H1208Q1160 1472 1088 1608L1256 1664Q1336 1504 1384 1312H1888V1160H696ZM1608 1088 1792 1032Q1648 464 1496 48H1944V-104H632V48H1320Q1488 544 1608 1088ZM968 1048Q1096 624 1136 192L960 144Q920 600 792 1000Z" style="fill: #000000; stroke: none" /></g><g transform="translate(50.0000,0) scale(0.00488281)"><path d="M104 1120H416V1384Q296 1352 168 1328L112 1472Q472 1536 768 1664L840 1528L568 1432V1120H856V976H568V936Q728 768 848 600L744 456Q656 608 568 728V-184H416V616Q320 376 168 176L56 312Q280 600 392 976H104ZM1296 1656 1456 1624Q1416 1552 1360 1480H1848V1336Q1624 848 824 696L760 856Q1472 960 1672 1336H1216Q1176 1296 1136 1272Q1208 1208 1280 1136L1176 1024Q1104 1104 1016 1184L880 1112L776 1224Q1128 1408 1296 1656ZM1376 856 1512 784Q1480 744 1440 704H1896V560Q1648 -8 768 -192L696 -32Q1520 104 1728 560H1296Q1256 520 1208 480Q1288 416 1368 328L1256 216Q1176 304 1080 384L872 256L784 392Q1120 560 1376 856Z" style="fill: #000000; stroke: none" /></g><g transform="translate(62.5977,0) scale(0.00488281)"><path d="M532 938Q476 970 429.5 1007.5Q383 1045 349.5 1088.0Q316 1131 297.5 1180.0Q279 1229 279 1286Q279 1358 304.5 1410.5Q330 1463 376.0 1498.0Q422 1533 484.5 1550.0Q547 1567 621 1567Q689 1567 745.5 1557.0Q802 1547 850.0 1531.5Q898 1516 938.5 1496.5Q979 1477 1014 1458L940 1313Q908 1333 871.5 1352.0Q835 1371 794.5 1386.0Q754 1401 708.5 1410.0Q663 1419 612 1419Q570 1419 540.0 1407.5Q510 1396 490.5 1377.5Q471 1359 462.0 1334.0Q453 1309 453 1282Q453 1245 466.5 1214.0Q480 1183 510.0 1152.5Q540 1122 589.0 1089.5Q638 1057 709 1016Q794 967 861.0 913.0Q928 859 974.0 796.0Q1020 733 1044.5 659.5Q1069 586 1069 498Q1069 371 1034.5 274.5Q1000 178 936.5 112.5Q873 47 784.0 13.5Q695 -20 586 -20Q483 -20 396.0 10.5Q309 41 245.5 99.5Q182 158 146.5 243.0Q111 328 111 438Q111 544 144.5 625.5Q178 707 235.0 768.0Q292 829 368.5 870.5Q445 912 532 938ZM881 481Q881 550 866.0 605.5Q851 661 822.5 705.5Q794 750 753.0 786.5Q712 823 659 854Q601 838 538.0 809.0Q475 780 423.0 731.0Q371 682 337.0 609.5Q303 537 303 434Q303 368 322.0 312.5Q341 257 377.5 216.5Q414 176 466.5 153.5Q519 131 586 131Q728 131 804.5 221.0Q881 311 881 481Z" style="fill: #000000; stroke: none" /></g></g></g></g>
   </g>
   <g id="matplotlib.axis_2">
    <g id="text_2">
     <g transform="rotate(-90 27.455656 136.598828)"><g transform="translate(3.7008,136.5988) scale(1,-1)"><g transform="translate(0.0000,0) scale(0.00488281)"><path d="M568 1656 728 1608Q640 1376 520 1152V-184H360V896Q264 768 160 656L80 816Q424 1216 568 1656ZM1184 1664 1360 1640 1312 1424H1872V1272H1272L1208 1048H1936V896H1160Q1120 776 1072 672H1824V520Q1680 288 1488 120Q1608 48 1712 -32L1616 -176Q1296 56 824 240L896 384Q1136 296 1336 192Q1496 336 1632 520H936L872 672Q936 768 984 896H632V1048H1032L1104 1272H736V1424H1144Q1168 1544 1184 1664Z" style="fill: #000000; stroke: none" /></g><g transform="translate(10.0000,0) scale(0.00488281)"><path d="M240 1608Q400 1504 528 1360L416 1224Q280 1384 128 1488ZM104 944H504V176Q600 104 748.0 72.0Q896 40 1392 40H1952L1872 -136H1232Q880 -136 720.0 -88.0Q560 -40 440 64L208 -168L96 0Q224 72 344 152V792H104ZM976 1664Q1064 1552 1120 1432H1320Q1384 1544 1440 1656L1608 1608Q1552 1512 1496 1432H1760V960H1312V768H1872Q1856 456 1824 328Q1800 232 1744 192Q1712 176 1472 168L1448 312H1632Q1664 312 1680.0 360.0Q1696 408 1704 632H1312V80H1160V552Q984 312 688 160L584 288Q888 432 1048 632H672L736 1096H1160V1296H680V1432H944Q904 1512 848 1584ZM1312 1296V1096H1616V1296ZM1160 768V960H864L848 768Z" style="fill: #000000; stroke: none" /></g><g transform="translate(20.0000,0) scale(0.00488281)"><path d="M184 1480H600V1656H760V1480H1168V1344H760V1160H1312L1296 1648H1456L1472 1160H1936V1016H1480Q1496 736 1552 448Q1648 632 1720 904L1872 848Q1776 488 1608 224Q1672 0 1728 0Q1808 0 1824 248L1960 224Q1936 -16 1880.0 -96.0Q1824 -176 1728 -176Q1592 -176 1488 88Q1416 8 1320 -64L1232 64Q1352 160 1432 264Q1352 560 1320 1016H112V1160H600V1344H184ZM1688 1632Q1792 1504 1856 1344L1704 1280Q1640 1440 1552 1568ZM640 656H792V480H1088V352H792V216L1104 264L1128 136Q968 104 792 80V-200H640V56L160 -8L128 136L640 192V352H248L216 480Q320 584 400 704H200V840H480L544 992L680 968L632 840H1096V704H560Q488 576 400 480H640Z" style="fill: #000000; stroke: none" /></g><g transform="translate(30.0000,0) scale(0.00488281)"><path d="M120 1512H600V1656H768V1512H1288V1656H1448V1512H1928V1368H1448V1240H1288V1368H768V1240H600V1368H120ZM504 1160 656 1112Q600 952 512 792V-184H352V552Q280 448 200 368L120 520Q384 824 504 1160ZM688 1120H1920V968H1720V16Q1720 -96 1680.0 -136.0Q1640 -176 1520 -176Q1440 -176 1368 -168L1344 -24Q1416 -32 1488 -32Q1528 -32 1544.0 -16.0Q1560 0 1560 56V968H688ZM1384 736V232H928V136H776V736ZM928 368H1232V600H928Z" style="fill: #000000; stroke: none" /></g><g transform="translate(42.5977,0) scale(0.00488281)"><path d="M385 0H199V1462H958V1298H385V782H920V618H385Z" style="fill: #000000; stroke: none" /></g></g></g></g>
   </g>
   <g id="line2d_1">
    <path d="M 33.858 248.477656  L 39.232475 239.426504  L 44.60695 230.754649  L 49.981425 222.446197  L 55.3559 214.485918  L 60.730375 206.859223  L 66.104849 199.552132  L 71.479324 192.551252  L 76.853799 185.84375  L 83.571893 177.853257  L 90.289987 170.279109  L 97.00808 163.099614  L 103.726174 156.294208  L 110.444268 149.843398  L 117.162361 143.728708  L 123.880455 137.932626  L 130.598548 132.438549  L 137.316642 127.230742  L 144.034736 122.294289  L 150.752829 117.61505  L 157.470923 113.179624  L 164.189017 108.975306  L 172.250729 104.218278  L 180.312441 99.757116  L 188.374154 95.57342  L 196.435866 91.649932  L 204.497579 87.970468  L 212.559291 84.519851  L 220.621003 81.283848  L 230.026334 77.761998  L 239.431666 74.494352  L 248.836997 71.46256  L 258.242328 68.649601  L 268.991278 65.682537  L 279.740227 62.958939  L 290.489177 60.458828  L 302.581746 57.890566  L 314.674314 55.558141  L 326.766883 53.439897  L 340.20307 51.313633  L 353.639258 49.403176  L 368.419064 47.524854  L 384.542488 45.712869  L 400.665913 44.119271  L 418.132957 42.608866  L 435.6 41.294641  L 435.6 41.294641  " clip-path="url(#pae00c2b998)" style="fill: none; stroke: #718096; stroke-width: 2; stroke-linecap: square" />
   </g>
   <g id="line2d_2">
    <path d="M 33.858 248.477656  L 162.41544 110.06445  " clip-path="url(#pae00c2b998)" style="fill: none; stroke: #2b6cb0; stroke-width: 2; stroke-linecap: square" />
   </g>
   <g id="line2d_3">
    <path d="M 162.41544 248.477656  L 162.41544 110.06445  " clip-path="url(#pae00c2b998)" style="fill: none; stroke-dasharray: 0.8,1.32; stroke-dashoffset: 0; stroke: #2b6cb0; stroke-width: 0.8" />
   </g>
   <g id="line2d_4">
    <path d="M 33.858 110.06445  L 162.41544 110.06445  " clip-path="url(#pae00c2b998)" style="fill: none; stroke-dasharray: 0.8,1.32; stroke-dashoffset: 0; stroke: #2b6cb0; stroke-width: 0.8" />
   </g>
   <g id="patch_3">
    <path d="M 33.858 248.477656  L 33.858 24.72  " style="fill: none; stroke: #000000; stroke-width: 0.8; stroke-linejoin: miter; stroke-linecap: square" />
   </g>
   <g id="patch_4">
    <path d="M 33.858 248.477656  L 435.6 248.477656  " style="fill: none; stroke: #000000; stroke-width: 0.8; stroke-linejoin: miter; stroke-linecap: square" />
   </g>
   <g id="text_3">
    <text style="font-size: 9.5px; font-family: 'DejaVu Sans'; text-anchor: start; fill: #2b6cb0" x="170.45028" y="181.738826" transform="rotate(-0 170.45028 181.738826)">δ = C·F</text>
   </g>
   <g id="text_4">
    <text style="font-size: 10px; font-family: 'DejaVu Sans'; text-anchor: middle; fill: #2b6cb0" x="98.13672" y="260.908637" transform="rotate(-0 98.13672 260.908637)">δ</text>
   </g>
   <g id="text_5">
    <text style="font-size: 10px; font-family: 'DejaVu Sans'; text-anchor: end; fill: #2b6cb0" x="13.7709" y="112.662106" transform="rotate(-0 13.7709 112.662106)">F</text>
   </g>
   <g id="text_6">
    <g transform="translate(282.93804 145.356628)"><g transform="translate(0.0000,0.0000) scale(1,-1)"><g transform="translate(0.0000,0) scale(0.00415039)"><path d="M136 1288H392V1656H544V1288H784V1136H544V1040Q696 856 808 680L704 528Q624 696 544 824V-184H392V688Q304 424 184 248L72 360Q304 704 376 1136H136ZM1048 936Q1032 280 792 -152L648 -56Q888 368 888 1072V1504Q1336 1552 1712 1648L1832 1520Q1480 1416 1048 1376V1080H1816Q1784 640 1560 288Q1720 104 1944 -32L1824 -168Q1616 -40 1464 152Q1288 -48 1040 -176L944 -32Q1200 80 1360 280Q1144 600 1080 936ZM1240 936Q1296 656 1456 416Q1600 648 1640 936Z" style="fill: #4a5568; stroke: none" /></g><g transform="translate(8.5000,0) scale(0.00415039)"><path d="M480 1656 640 1608Q568 1384 472 1168V-184H312V864Q240 752 160 656L80 816Q352 1216 480 1656ZM1872 1296V248H1712V368H1352V-184H1192V368H824V248H664V1296H1192V1656H1352V1296ZM824 904H1192V1152H824ZM1352 1152V904H1712V1152ZM824 512H1192V760H824ZM1352 760V512H1712V760Z" style="fill: #4a5568; stroke: none" /></g><g transform="translate(17.0000,0) scale(0.00415039)"><path d="M112 920H528V1648H688V920H1888V768H1144Q1344 264 1888 56L1792 -112Q1176 144 968 768H688V32Q864 128 992 232L1024 80Q848 -56 600 -176L528 -96V768H112ZM1512 1640 1640 1536Q1360 1192 952 992L864 1136Q1224 1312 1512 1640Z" style="fill: #4a5568; stroke: none" /></g><g transform="translate(27.7080,0) scale(0.00415039)"><path d="M1075 1034Q1075 943 1047.5 859.0Q1020 775 957.0 710.5Q894 646 790.5 607.5Q687 569 535 569H385V0H199V1462H561Q695 1462 792.0 1433.5Q889 1405 952.0 1350.5Q1015 1296 1045.0 1216.0Q1075 1136 1075 1034ZM385 727H514Q607 727 676.5 743.0Q746 759 791.5 794.5Q837 830 860.0 886.5Q883 943 883 1024Q883 1166 801.0 1234.5Q719 1303 545 1303H385Z" style="fill: #4a5568; stroke: none" /></g><g transform="translate(32.6055,0) scale(0.00415039)"><path d="M147 723Q147 761 157.0 787.5Q167 814 184.0 830.5Q201 847 224.0 854.5Q247 862 274 862Q300 862 323.5 854.5Q347 847 364.0 830.5Q381 814 391.0 787.5Q401 761 401 723Q401 686 391.0 660.0Q381 634 364.0 617.0Q347 600 323.5 592.0Q300 584 274 584Q247 584 224.0 592.0Q201 600 184.0 617.0Q167 634 157.0 660.0Q147 686 147 723Z" style="fill: #4a5568; stroke: none" /></g><g transform="translate(34.8840,0) scale(0.00415039)"><path d="M199 0V1462H385V166H958V0Z" style="fill: #4a5568; stroke: none" /></g><g transform="translate(39.0593,0) scale(0.00415039)"><path d="M743 1462 199 0H20L565 1462Z" style="fill: #4a5568; stroke: none" /></g><g transform="translate(42.2302,0) scale(0.00415039)"><path d="M82 561Q82 686 100.0 807.5Q118 929 155.0 1043.5Q192 1158 248.5 1263.5Q305 1369 383 1462H555Q415 1269 342.5 1038.0Q270 807 270 563Q270 444 288.5 326.0Q307 208 342.5 95.0Q378 -18 431.0 -124.0Q484 -230 553 -324H383Q305 -234 248.5 -131.0Q192 -28 155.0 84.5Q118 197 100.0 317.0Q82 437 82 561Z" style="fill: #4a5568; stroke: none" /></g><g transform="translate(44.7869,0) scale(0.00415039)"><path d="M958 0H199V1462H958V1298H385V846H920V684H385V164H958Z" style="fill: #4a5568; stroke: none" /></g><g transform="translate(49.2734,0) scale(0.00415039)"><path d="M147 723Q147 761 157.0 787.5Q167 814 184.0 830.5Q201 847 224.0 854.5Q247 862 274 862Q300 862 323.5 854.5Q347 847 364.0 830.5Q381 814 391.0 787.5Q401 761 401 723Q401 686 391.0 660.0Q381 634 364.0 617.0Q347 600 323.5 592.0Q300 584 274 584Q247 584 224.0 592.0Q201 600 184.0 617.0Q167 634 157.0 660.0Q147 686 147 723Z" style="fill: #4a5568; stroke: none" /></g><g transform="translate(51.5520,0) scale(0.00415039)"><path d="M1055 0 895 453H350L188 0H0L537 1468H707L1245 0ZM836 618 688 1042Q682 1060 673.5 1086.0Q665 1112 656.0 1142.0Q647 1172 638.0 1204.5Q629 1237 621 1268Q614 1237 605.0 1204.0Q596 1171 587.0 1140.5Q578 1110 569.5 1084.5Q561 1059 555 1042L410 618Z" style="fill: #4a5568; stroke: none" /></g><g transform="translate(56.7192,0) scale(0.00415039)"><path d="M535 561Q535 437 517.0 317.0Q499 197 461.5 84.5Q424 -28 367.5 -131.0Q311 -234 233 -324H63Q132 -230 185.0 -124.0Q238 -18 274.0 95.0Q310 208 328.0 326.0Q346 444 346 563Q346 807 274.0 1038.0Q202 1269 61 1462H233Q311 1369 367.5 1263.5Q424 1158 461.5 1043.5Q499 929 517.0 807.5Q535 686 535 561Z" style="fill: #4a5568; stroke: none" /></g></g></g><g transform="translate(282.93804 155.558953)"><g transform="translate(0.0000,0.0000) scale(1,-1)"><g transform="translate(0.0000,0) scale(0.00415039)"><path d="M192 1544H1664V632H1504V760H456V128Q456 72 532.0 52.0Q608 32 1008 32Q1232 32 1344.0 36.0Q1456 40 1456 48Q1616 48 1656.0 76.0Q1696 104 1720.0 188.0Q1744 272 1752 416L1912 352Q1856 -8 1744.0 -68.0Q1632 -128 1008 -128H848Q488 -128 392.0 -84.0Q296 -40 296 64V1176H456V912H1504V1392H192Z" style="fill: #4a5568; stroke: none" /></g><g transform="translate(8.5000,0) scale(0.00415039)"><path d="M680 1336 824 1280Q624 856 368 568Q568 616 736 672L776 544Q504 440 168 384L120 520Q296 688 456 944Q320 912 168 896L136 1048Q320 1272 440 1656L592 1608Q480 1272 312 1056Q440 1064 544 1080ZM776 312 808 168Q520 64 168 -16L104 152Q480 224 776 312ZM1376 904Q1160 744 880 672L776 824Q1352 952 1576 1368H872V1512H1760V1392Q1672 1176 1504 1008Q1744 928 1960 816L1888 664Q1632 808 1376 904ZM904 584H1840V440H1432V0H1904V-144H760V0H1272V440H904Z" style="fill: #4a5568; stroke: none" /></g><g transform="translate(17.0000,0) scale(0.00415039)"><path d="M136 1320H464V1656H624V1320H896V1168H624V760Q760 808 880 856L904 712L624 584V32Q624 -88 580.0 -136.0Q536 -184 424 -184Q320 -184 224 -168L192 0Q296 -24 400 -24Q464 -24 464 72V528Q312 472 144 424L88 592L464 704V1168H136ZM1848 1496V-120H1688V16H1176V-128H1016V1496ZM1176 168H1688V1344H1176Z" style="fill: #4a5568; stroke: none" /></g><g transform="translate(25.5000,0) scale(0.00415039)"><path d="M664 1584V1448L488 984Q656 736 656 496Q656 344 596.0 268.0Q536 192 424 192Q392 192 344 208L320 352Q384 336 424 336Q464 336 484.0 376.0Q504 416 504 496Q504 728 328 960L512 1448H288V-192H136V1584ZM1240 1664 1392 1616 1360 1552Q1632 1256 1944 1096L1848 936Q1552 1104 1280 1416Q1080 1112 784 920L672 1032Q1048 1304 1240 1664ZM1016 1056H1600V912H1376V696H1872V544H1376V24Q1376 -96 1328.0 -140.0Q1280 -184 1152 -184Q1064 -184 992 -168L960 0Q1056 -24 1152 -24Q1216 -24 1216 56V544H696V696H1216V912H1016ZM936 464 1072 384Q912 88 744 -80L608 40Q808 240 936 464ZM1632 448Q1832 240 1960 8L1816 -72Q1696 152 1496 368Z" style="fill: #4a5568; stroke: none" /></g><g transform="translate(34.0000,0) scale(0.00415039)"><path d="M680 728H392V1056H680ZM680 0 552 -264H448L536 0H392V328H680Z" style="fill: #4a5568; stroke: none" /></g></g></g><g transform="translate(282.93804 165.761277)"><g transform="translate(0.0000,0.0000) scale(1,-1)"><g transform="translate(0.0000,0) scale(0.00415039)"><path d="M532 938Q476 970 429.5 1007.5Q383 1045 349.5 1088.0Q316 1131 297.5 1180.0Q279 1229 279 1286Q279 1358 304.5 1410.5Q330 1463 376.0 1498.0Q422 1533 484.5 1550.0Q547 1567 621 1567Q689 1567 745.5 1557.0Q802 1547 850.0 1531.5Q898 1516 938.5 1496.5Q979 1477 1014 1458L940 1313Q908 1333 871.5 1352.0Q835 1371 794.5 1386.0Q754 1401 708.5 1410.0Q663 1419 612 1419Q570 1419 540.0 1407.5Q510 1396 490.5 1377.5Q471 1359 462.0 1334.0Q453 1309 453 1282Q453 1245 466.5 1214.0Q480 1183 510.0 1152.5Q540 1122 589.0 1089.5Q638 1057 709 1016Q794 967 861.0 913.0Q928 859 974.0 796.0Q1020 733 1044.5 659.5Q1069 586 1069 498Q1069 371 1034.5 274.5Q1000 178 936.5 112.5Q873 47 784.0 13.5Q695 -20 586 -20Q483 -20 396.0 10.5Q309 41 245.5 99.5Q182 158 146.5 243.0Q111 328 111 438Q111 544 144.5 625.5Q178 707 235.0 768.0Q292 829 368.5 870.5Q445 912 532 938ZM881 481Q881 550 866.0 605.5Q851 661 822.5 705.5Q794 750 753.0 786.5Q712 823 659 854Q601 838 538.0 809.0Q475 780 423.0 731.0Q371 682 337.0 609.5Q303 537 303 434Q303 368 322.0 312.5Q341 257 377.5 216.5Q414 176 466.5 153.5Q519 131 586 131Q728 131 804.5 221.0Q881 311 881 481Z" style="fill: #4a5568; stroke: none" /></g><g transform="translate(7.1138,0) scale(0.00415039)"><path d="M392 1616H1656V888H392ZM544 1320H1504V1472H544ZM544 1032H1504V1192H544ZM136 776H1912V632H1112V424H1808V280H1112V32Q1328 -8 1680 -8H1952L1896 -168H1680Q1184 -168 924.0 -72.0Q664 24 520 192Q392 -32 208 -184L80 -56Q424 216 488 584L648 552Q632 440 592 336Q736 152 952 80V632H136Z" style="fill: #4a5568; stroke: none" /></g><g transform="translate(15.6138,0) scale(0.00415039)"><path d="M1032 1672 1192 1640Q1128 1560 1048 1496H1712V1352Q1400 864 280 704L216 864Q1248 968 1528 1352H848L736 1288Q824 1224 912 1152L800 1040Q704 1128 584 1216Q480 1168 376 1136L272 1248Q640 1376 792 1488L800 1496H808Q944 1584 1032 1672ZM1128 864 1272 792Q1224 752 1168 712H1784V568Q1432 -8 192 -192L128 -32Q1296 104 1600 568H976Q840 472 760 440Q864 368 960 288L840 168Q736 264 608 360Q496 304 384 264L288 400Q760 560 1128 864Z" style="fill: #4a5568; stroke: none" /></g><g transform="translate(24.1138,0) scale(0.00415039)"><path d="M216 664H376V56H936V848H296V1496H456V1000H936V1656H1096V1000H1568V1496H1728V792H1568V848H1096V56H1656V664H1816V-184H1656V-96H216Z" style="fill: #4a5568; stroke: none" /></g><g transform="translate(32.6138,0) scale(0.00415039)"><path d="M200 1464H944V1656H1104V1464H1848V1312H1104V800H1944V648H1248Q1520 272 1960 96L1872 -80Q1400 152 1104 608V-184H944V592Q664 168 192 -88L80 56Q544 288 808 648H104V800H944V1312H200ZM1568 1264 1712 1176Q1576 968 1440 848L1312 960Q1472 1096 1568 1264ZM480 1256Q616 1096 704 920L552 832Q472 1008 336 1168Z" style="fill: #4a5568; stroke: none" /></g><g transform="translate(41.1138,0) scale(0.00415039)"><path d="M1208 1648 1368 1616Q1328 1464 1264 1320H1888Q1888 264 1816 16Q1760 -184 1552 -184Q1448 -184 1304 -152L1264 16Q1464 -16 1552 -16Q1648 -16 1672 96Q1720 312 1720 1168H1184Q1088 1000 976 888L856 1000Q1096 1264 1208 1648ZM1272 856Q1392 680 1472 464L1320 392Q1240 616 1120 792ZM824 1392V-56H680V8H312V-112H168V1392H344Q384 1520 400 1656L568 1624Q536 1496 496 1392ZM680 776V1240H312V776ZM312 624V160H680V624Z" style="fill: #4a5568; stroke: none" /></g><g transform="translate(49.6138,0) scale(0.00415039)"><path d="M568 1656 728 1608Q640 1376 520 1152V-184H360V896Q264 768 160 656L80 816Q424 1216 568 1656ZM696 1312H1208Q1160 1472 1088 1608L1256 1664Q1336 1504 1384 1312H1888V1160H696ZM1608 1088 1792 1032Q1648 464 1496 48H1944V-104H632V48H1320Q1488 544 1608 1088ZM968 1048Q1096 624 1136 192L960 144Q920 600 792 1000Z" style="fill: #4a5568; stroke: none" /></g><g transform="translate(58.1138,0) scale(0.00415039)"><path d="M104 1120H416V1384Q296 1352 168 1328L112 1472Q472 1536 768 1664L840 1528L568 1432V1120H856V976H568V936Q728 768 848 600L744 456Q656 608 568 728V-184H416V616Q320 376 168 176L56 312Q280 600 392 976H104ZM1296 1656 1456 1624Q1416 1552 1360 1480H1848V1336Q1624 848 824 696L760 856Q1472 960 1672 1336H1216Q1176 1296 1136 1272Q1208 1208 1280 1136L1176 1024Q1104 1104 1016 1184L880 1112L776 1224Q1128 1408 1296 1656ZM1376 856 1512 784Q1480 744 1440 704H1896V560Q1648 -8 768 -192L696 -32Q1520 104 1728 560H1296Q1256 520 1208 480Q1288 416 1368 328L1256 216Q1176 304 1080 384L872 256L784 392Q1120 560 1376 856Z" style="fill: #4a5568; stroke: none" /></g></g></g><g transform="translate(282.93804 175.963601)"><g transform="translate(0.0000,0.0000) scale(1,-1)"><g transform="translate(0.0000,0) scale(0.00415039)"><path d="M1792 1296V-192H1624V-32H424V-192H256V1296H936V1656H1112V1296ZM424 704H936V1144H424ZM1112 1144V704H1624V1144ZM424 120H936V560H424ZM1112 120H1624V560H1112Z" style="fill: #4a5568; stroke: none" /></g><g transform="translate(8.5000,0) scale(0.00415039)"><path d="M648 1624H800V976H648ZM264 1552H416V976H264ZM624 704Q888 712 1080 728Q1208 800 1320 880L1448 792Q1040 512 584 384Q1200 400 1528 456Q1456 520 1376 584L1504 672Q1696 528 1880 328L1744 224L1648 336Q1392 304 1128 288V0Q1128 -112 1088.0 -156.0Q1048 -200 904 -200Q840 -200 776 -192L752 -32Q824 -48 904 -48Q960 -48 960 24V280Q616 256 272 256L248 408Q600 496 856 616Q624 600 384 592L360 704Q584 784 728 920L880 880Q792 792 624 704ZM1360 224Q1624 144 1880 -40L1792 -176Q1536 16 1272 104ZM616 192 712 88Q536 -56 176 -176L112 -32Q424 48 616 192ZM976 1608H1808V1464Q1696 1272 1536 1144Q1704 1064 1928 1000L1848 848Q1600 920 1400 1056Q1232 960 1000 904L944 1040Q1128 1080 1272 1152Q1128 1304 1064 1464H976ZM1216 1464Q1288 1328 1408 1232Q1544 1336 1624 1464Z" style="fill: #4a5568; stroke: none" /></g><g transform="translate(17.0000,0) scale(0.00415039)"><path d="M1864 1592V-184H1704V-72H344V-184H184V1592ZM344 80H1704V1440H344ZM432 1136H944V1368H1104V1136H1616V984H1104V752H1480V192H584V752H944V984H432ZM736 344H1320V608H736Z" style="fill: #4a5568; stroke: none" /></g><g transform="translate(25.5000,0) scale(0.00415039)"><path d="M480 1656 640 1608Q568 1384 472 1168V-184H312V864Q240 752 160 656L80 816Q352 1216 480 1656ZM904 1584 1056 1536Q1016 1400 960 1272H1240V1656H1400V1272H1880V1120H1400V648H1952V496H1400V-184H1240V496H608V648H1240V1120H896Q808 928 696 784L560 888Q792 1192 904 1584Z" style="fill: #4a5568; stroke: none" /></g><g transform="translate(34.0000,0) scale(0.00415039)"><path d="M1568 1656H1728V-184H1568ZM896 1136V1432H216V1584H1056V984H432L376 664H1096Q1096 56 1028.0 -60.0Q960 -176 760 -176Q632 -176 448 -152L416 8Q608 -16 744 -16Q848 -16 880.0 52.0Q912 120 936 512H192L296 1136Z" style="fill: #4a5568; stroke: none" /></g><g transform="translate(42.5000,0) scale(0.00415039)"><path d="M224 1408H512V1656H672V1408H952V1264H672V1008H1008V864H704V608H960V464H704V72Q872 0 1520 0H1952L1904 -160H1520Q912 -160 692.0 -88.0Q472 -16 328 160Q280 -56 208 -200L72 -72Q216 216 280 736L424 712Q400 512 368 344Q456 216 552 152V864H160V1008H512V1264H224ZM1640 1000V1400H1080V1536H1792V856H1240V368Q1240 328 1260.0 316.0Q1280 304 1456 304Q1656 304 1700.0 328.0Q1744 352 1760 568L1912 504Q1880 248 1840 208Q1768 152 1456 152Q1216 152 1208 160Q1152 160 1124.0 204.0Q1096 248 1096 328V1000Z" style="fill: #4a5568; stroke: none" /></g></g></g></g>
   <g id="text_7">
    <g transform="rotate(-0 234.729 18.72)"><g transform="translate(170.4150,18.7200) scale(1,-1)"><g transform="translate(0.0000,0) scale(0.00488281)"><path d="M104 1296H392L472 1648L624 1616Q592 1448 552 1296H976Q968 648 752 296L992 56L848 -48Q760 64 664 168Q480 -48 248 -192L136 -48Q408 112 544 280Q384 440 192 584Q280 856 360 1144H104ZM376 632Q504 528 632 408Q784 704 816 1144H520Q448 864 376 632ZM1864 1504V-128H1704V48H1280V-144H1120V1504ZM1280 200H1704V1352H1280Z" style="fill: #000000; stroke: none" /></g><g transform="translate(10.0000,0) scale(0.00488281)"><path d="M680 1544H1936V1392H1776V24Q1776 -88 1736.0 -136.0Q1696 -184 1584 -184Q1488 -184 1400 -160L1368 -8Q1464 -32 1560 -32Q1616 -32 1616 64V1392H680ZM1384 1080V376H928V264H776V1080ZM928 520H1232V944H928ZM504 1656 664 1608Q600 1424 520 1240V-184H360V936Q264 784 160 656L80 816Q376 1216 504 1656Z" style="fill: #000000; stroke: none" /></g><g transform="translate(20.0000,0) scale(0.00488281)"><path d="M1328 640Q1248 168 784 -200L672 -72Q984 160 1108.0 492.0Q1232 824 1232 1656H1400Q1400 1416 1392 1192L1376 992Q1376 936 1464.0 672.0Q1552 408 1664.0 252.0Q1776 96 1960 -48L1824 -176Q1480 136 1328 640ZM496 1664H656V1176Q656 960 624 760Q816 616 960 440L864 296Q752 448 592 584Q472 112 224 -176L88 -64Q496 440 496 1176Z" style="fill: #000000; stroke: none" /></g><g transform="translate(30.0000,0) scale(0.00488281)"><path d="M400 1656Q528 1496 608 1320L456 1232Q384 1408 256 1568ZM104 1064H520V184L624 328L720 240Q632 72 488 -80L368 24V920H104ZM792 1304H1352Q1344 1472 1344 1656H1504Q1504 1464 1512 1304H1944V1152H1520Q1536 576 1640 224Q1696 0 1728 0Q1760 0 1776.0 84.0Q1792 168 1792 336L1960 280Q1936 0 1884.0 -92.0Q1832 -184 1744 -184Q1624 -184 1544 32Q1400 408 1360 1152H792ZM1712 1648Q1800 1544 1856 1432L1720 1352Q1672 1464 1584 1568ZM792 856H1312V720H1128V192Q1264 232 1376 272L1400 128Q1112 16 760 -56L728 96Q856 128 976 152V720H792Z" style="fill: #000000; stroke: none" /></g><g transform="translate(40.0000,0) scale(0.00488281)"><path d="M152 1592H760L704 752H840Q816 96 752.0 -40.0Q688 -176 544 -176H424L392 -24Q568 -24 584 -8Q616 24 632 128Q656 280 664 608H176L240 1328L384 1304L344 752H552L608 1456H152ZM512 456 544 312Q384 192 184 104L128 264Q336 344 512 456ZM1312 1632 1472 1584Q1456 1544 1432 1504Q1672 1184 1936 1016L1848 856Q1776 904 1712 960V840H1016V944Q952 896 896 848L800 992Q1152 1296 1312 1632ZM1056 984H1688Q1528 1128 1352 1368Q1208 1136 1056 984ZM872 48H1448Q1576 400 1648 744L1816 688Q1720 320 1608 48H1896V-112H872ZM1352 720Q1416 496 1448 264L1288 224Q1272 472 1208 688ZM1048 672Q1144 424 1168 160L1024 120Q992 400 904 640Z" style="fill: #000000; stroke: none" /></g><g transform="translate(50.0000,0) scale(0.00488281)"><path d="M392 1656Q504 1504 576 1336L424 1248Q360 1416 248 1568ZM104 1064H480V152Q544 216 608 304L712 208Q616 56 448 -80L336 24V920H104ZM904 1472H1280V1656H1448V1472H1824V1336H1448V1144H1896V1016Q1824 856 1736 728L1616 816Q1680 920 1728 1008H824V1144H1280V1336H904ZM1104 944Q1224 872 1320 768L1224 648Q1120 768 1016 848ZM784 424H1320Q1376 592 1376 928H1528Q1528 616 1488 424H1936V280H1440Q1296 -24 824 -184L752 -56Q1104 64 1256 280H784ZM936 776Q1064 688 1176 568L1088 464Q968 600 848 688ZM1568 208Q1792 96 1968 -56L1864 -192Q1672 -16 1456 104Z" style="fill: #000000; stroke: none" /></g><g transform="translate(60.0000,0) scale(0.00488281)"><path d="M128 1592H1032V1440H936V376L1056 392L1080 248Q1008 232 936 224V-184H776V200Q472 152 136 112L104 272L248 288V1440H128ZM408 1184H776V1440H408ZM408 784H776V1040H408ZM408 304 776 352V640H408ZM1072 1560H1880Q1832 888 1592 400Q1728 184 1960 -48L1856 -176Q1640 32 1504 240Q1336 -16 1112 -160L1024 -32Q1272 144 1416 400Q1240 768 1168 1408H1072ZM1312 1408Q1368 896 1504 576Q1664 960 1704 1408Z" style="fill: #000000; stroke: none" /></g><g transform="translate(70.0000,0) scale(0.00488281)"><path d="M648 1624H800V976H648ZM264 1552H416V976H264ZM624 704Q888 712 1080 728Q1208 800 1320 880L1448 792Q1040 512 584 384Q1200 400 1528 456Q1456 520 1376 584L1504 672Q1696 528 1880 328L1744 224L1648 336Q1392 304 1128 288V0Q1128 -112 1088.0 -156.0Q1048 -200 904 -200Q840 -200 776 -192L752 -32Q824 -48 904 -48Q960 -48 960 24V280Q616 256 272 256L248 408Q600 496 856 616Q624 600 384 592L360 704Q584 784 728 920L880 880Q792 792 624 704ZM1360 224Q1624 144 1880 -40L1792 -176Q1536 16 1272 104ZM616 192 712 88Q536 -56 176 -176L112 -32Q424 48 616 192ZM976 1608H1808V1464Q1696 1272 1536 1144Q1704 1064 1928 1000L1848 848Q1600 920 1400 1056Q1232 960 1000 904L944 1040Q1128 1080 1272 1152Q1128 1304 1064 1464H976ZM1216 1464Q1288 1328 1408 1232Q1544 1336 1624 1464Z" style="fill: #000000; stroke: none" /></g><g transform="translate(80.0000,0) scale(0.00488281)"><path d="M1864 1592V-184H1704V-72H344V-184H184V1592ZM344 80H1704V1440H344ZM432 1136H944V1368H1104V1136H1616V984H1104V752H1480V192H584V752H944V984H432ZM736 344H1320V608H736Z" style="fill: #000000; stroke: none" /></g><g transform="translate(90.0000,0) scale(0.00488281)"><path d="M480 1656 640 1608Q568 1384 472 1168V-184H312V864Q240 752 160 656L80 816Q352 1216 480 1656ZM904 1584 1056 1536Q1016 1400 960 1272H1240V1656H1400V1272H1880V1120H1400V648H1952V496H1400V-184H1240V496H608V648H1240V1120H896Q808 928 696 784L560 888Q792 1192 904 1584Z" style="fill: #000000; stroke: none" /></g><g transform="translate(100.0000,0) scale(0.00488281)"><path d="M128 472H944V632H1112V472H1912V336H1240Q1512 104 1944 -16L1864 -176Q1400 -16 1112 296V-192H944V312Q664 0 208 -176L96 -32Q520 104 792 336H128ZM312 1608H1664V1472Q1440 1344 1120 1240H1856V1104Q1744 928 1592 776L1464 872Q1584 984 1664 1104H1192V864Q1192 760 1148.0 716.0Q1104 672 960 672Q872 672 792 688L768 840Q864 816 960 816Q1024 816 1024 888V1104H1016Q712 832 208 664L104 800Q544 920 816 1104H144V1240H856Q760 1296 640 1344L768 1432Q880 1376 976 1312Q1216 1384 1392 1472H312Z" style="fill: #000000; stroke: none" /></g><g transform="translate(110.0000,0) scale(0.00488281)"><path d="M1104 1664Q1152 1592 1184 1496H1896V1352H440V728Q440 216 232 -184L80 -88Q192 144 236.0 332.0Q280 520 280 784V1496H1008Q984 1560 944 1616ZM480 1144H784V1296H936V1144H1424V1296H1576V1144H1880V1008H1576V688H784V1008H480ZM1424 824V1008H936V824ZM560 552H1752V432Q1616 232 1360 88Q1576 0 1952 -16L1904 -176Q1448 -160 1168 -8Q872 -128 488 -192L392 -48Q752 0 1000 88Q816 208 664 416H560ZM864 416Q1016 248 1184 168Q1392 272 1520 416Z" style="fill: #000000; stroke: none" /></g><g transform="translate(122.5977,0) scale(0.00488281)"><path d="M793 1319Q686 1319 599.0 1278.5Q512 1238 450.5 1162.0Q389 1086 355.5 977.0Q322 868 322 731Q322 590 351.5 480.5Q381 371 440.0 296.0Q499 221 587.0 182.0Q675 143 793 143Q882 143 962.0 160.5Q1042 178 1120 201V39Q1081 24 1042.0 12.5Q1003 1 960.5 -6.0Q918 -13 869.5 -16.5Q821 -20 762 -20Q598 -20 478.0 34.0Q358 88 279.5 187.0Q201 286 163.0 425.0Q125 564 125 733Q125 899 168.5 1037.0Q212 1175 296.5 1274.0Q381 1373 506.0 1428.0Q631 1483 793 1483Q901 1483 999.0 1461.0Q1097 1439 1176 1397L1098 1241Q1035 1273 961.0 1296.0Q887 1319 793 1319Z" style="fill: #000000; stroke: none" /></g></g></g></g>
   <g id="legend_1">
    <g id="line2d_5">
     <path d="M 226.371172 223.06  L 234.871172 223.06  L 243.371172 223.06  " style="fill: none; stroke: #718096; stroke-width: 2; stroke-linecap: square" />
    </g>
    <g id="text_8">
     <g transform="rotate(-0 250.171172 226.035)"><g transform="translate(250.1712,226.0350) scale(1,-1)"><g transform="translate(0.0000,0) scale(0.00415039)"><path d="M1040 1672Q1096 1584 1128 1480H1896V1112H1736V1336H312V1112H152V1480H952Q912 1560 872 1624ZM136 480H1048Q1120 632 1120 824Q1128 840 1128 1232H1296Q1296 792 1288 776Q1288 608 1240 480H1904V320H1160Q944 -16 304 -184L216 -32Q720 96 944 320H136ZM592 1160Q816 1056 1008 920L896 800Q712 936 496 1032ZM400 888Q624 784 808 648L696 528Q512 664 304 760ZM1392 264Q1688 104 1928 -40L1824 -168L1288 144Z" style="fill: #000000; stroke: none" /></g><g transform="translate(8.5000,0) scale(0.00415039)"><path d="M1736 1656H1888V32Q1888 -88 1852.0 -136.0Q1816 -184 1712 -184Q1584 -184 1480 -152L1448 16Q1560 -24 1688 -24Q1736 -24 1736 72ZM1416 1448H1568V280H1416ZM1288 1544V312H1136V1408H736V304H584V1544ZM864 1232H1016Q1016 616 984 440Q944 216 848.0 60.0Q752 -96 624 -184L528 -64Q648 24 732.0 160.0Q816 296 840.0 468.0Q864 640 864 1232ZM1096 256Q1240 88 1328 -96L1192 -176Q1112 8 976 184ZM256 1624Q400 1512 512 1392L392 1272Q280 1416 136 1536ZM192 1144Q344 1048 472 920L360 792Q232 936 88 1040ZM352 608 480 520Q392 152 224 -192L88 -88Q256 240 352 608Z" style="fill: #000000; stroke: none" /></g><g transform="translate(17.0000,0) scale(0.00415039)"><path d="M184 1480H600V1656H760V1480H1168V1344H760V1160H1312L1296 1648H1456L1472 1160H1936V1016H1480Q1496 736 1552 448Q1648 632 1720 904L1872 848Q1776 488 1608 224Q1672 0 1728 0Q1808 0 1824 248L1960 224Q1936 -16 1880.0 -96.0Q1824 -176 1728 -176Q1592 -176 1488 88Q1416 8 1320 -64L1232 64Q1352 160 1432 264Q1352 560 1320 1016H112V1160H600V1344H184ZM1688 1632Q1792 1504 1856 1344L1704 1280Q1640 1440 1552 1568ZM640 656H792V480H1088V352H792V216L1104 264L1128 136Q968 104 792 80V-200H640V56L160 -8L128 136L640 192V352H248L216 480Q320 584 400 704H200V840H480L544 992L680 968L632 840H1096V704H560Q488 576 400 480H640Z" style="fill: #000000; stroke: none" /></g><g transform="translate(25.5000,0) scale(0.00415039)"><path d="M120 1512H600V1656H768V1512H1288V1656H1448V1512H1928V1368H1448V1240H1288V1368H768V1240H600V1368H120ZM504 1160 656 1112Q600 952 512 792V-184H352V552Q280 448 200 368L120 520Q384 824 504 1160ZM688 1120H1920V968H1720V16Q1720 -96 1680.0 -136.0Q1640 -176 1520 -176Q1440 -176 1368 -168L1344 -24Q1416 -32 1488 -32Q1528 -32 1544.0 -16.0Q1560 0 1560 56V968H688ZM1384 736V232H928V136H776V736ZM928 368H1232V600H928Z" style="fill: #000000; stroke: none" /></g><g transform="translate(34.0000,0) scale(0.00415039)"><path d="M82 465V633H942V465Z" style="fill: #000000; stroke: none" /></g><g transform="translate(38.2500,0) scale(0.00415039)"><path d="M568 1656 728 1608Q640 1376 520 1152V-184H360V896Q264 768 160 656L80 816Q424 1216 568 1656ZM696 1312H1208Q1160 1472 1088 1608L1256 1664Q1336 1504 1384 1312H1888V1160H696ZM1608 1088 1792 1032Q1648 464 1496 48H1944V-104H632V48H1320Q1488 544 1608 1088ZM968 1048Q1096 624 1136 192L960 144Q920 600 792 1000Z" style="fill: #000000; stroke: none" /></g><g transform="translate(46.7500,0) scale(0.00415039)"><path d="M104 1120H416V1384Q296 1352 168 1328L112 1472Q472 1536 768 1664L840 1528L568 1432V1120H856V976H568V936Q728 768 848 600L744 456Q656 608 568 728V-184H416V616Q320 376 168 176L56 312Q280 600 392 976H104ZM1296 1656 1456 1624Q1416 1552 1360 1480H1848V1336Q1624 848 824 696L760 856Q1472 960 1672 1336H1216Q1176 1296 1136 1272Q1208 1208 1280 1136L1176 1024Q1104 1104 1016 1184L880 1112L776 1224Q1128 1408 1296 1656ZM1376 856 1512 784Q1480 744 1440 704H1896V560Q1648 -8 768 -192L696 -32Q1520 104 1728 560H1296Q1256 520 1208 480Q1288 416 1368 328L1256 216Q1176 304 1080 384L872 256L784 392Q1120 560 1376 856Z" style="fill: #000000; stroke: none" /></g><g transform="translate(55.2500,0) scale(0.00415039)"><path d="M1312 1464H1504Q976 1144 976 560Q976 -8 1504 -320H1312Q1080 -216 932.0 28.0Q784 272 784 560Q784 856 932.0 1100.0Q1080 1344 1312 1464Z" style="fill: #000000; stroke: none" /></g><g transform="translate(63.7500,0) scale(0.00415039)"><path d="M296 1544H1752V1392H296ZM152 1032H1896V880H1112V16Q1112 -96 1064.0 -140.0Q1016 -184 856 -184Q752 -184 664 -176L632 -16Q744 -32 856 -32Q952 -32 952 40V880H152ZM1448 680Q1736 392 1944 72L1808 -56Q1600 288 1320 576ZM560 672 704 584Q480 160 240 -88L104 32Q384 328 560 672Z" style="fill: #000000; stroke: none" /></g><g transform="translate(72.2500,0) scale(0.00415039)"><path d="M1048 1680Q1112 1608 1136 1528H1800V1392H1536Q1504 1320 1432 1200H1928V1064H128V1200H600Q560 1296 496 1392H240V1528H936Q912 1584 880 1632ZM776 1200H1248Q1304 1288 1344 1392H688Q744 1296 776 1200ZM336 960H1688V360H336ZM496 712H1528V824H496ZM496 488H1528V608H496ZM1736 312Q1864 144 1952 -64L1792 -136Q1712 80 1592 248ZM1056 312Q1112 216 1144 112L1000 64Q968 176 904 264ZM344 296 472 224Q352 -8 224 -144L104 -32Q248 120 344 296ZM552 272H712V72Q712 24 748.0 8.0Q784 -8 992 -8Q1184 -8 1192 0Q1368 8 1384 16Q1408 48 1424 184L1584 96Q1560 -80 1496 -128Q1456 -160 992 -160Q664 -160 608.0 -124.0Q552 -88 552 24Z" style="fill: #000000; stroke: none" /></g><g transform="translate(80.7500,0) scale(0.00415039)"><path d="M736 -320H544Q1072 -8 1072 560Q1072 1144 544 1464H736Q968 1344 1116.0 1100.0Q1264 856 1264 560Q1264 272 1116.0 28.0Q968 -216 736 -320Z" style="fill: #000000; stroke: none" /></g></g></g></g>
    <g id="line2d_6">
     <path d="M 226.371172 235.810664  L 234.871172 235.810664  L 243.371172 235.810664  " style="fill: none; stroke: #2b6cb0; stroke-width: 2; stroke-linecap: square" />
    </g>
    <g id="text_9">
     <g transform="rotate(-0 250.171172 238.785664)"><g transform="translate(250.1712,238.7857) scale(1,-1)"><g transform="translate(0.0000,0) scale(0.00415039)"><path d="M976 1656H1144L1120 1480H1872V1328H1088L1056 1136H1616V24H1912V-128H144V24H424V1136H888L920 1328H176V1480H952ZM1456 840V984H584V840ZM584 576H1456V712H584ZM584 304H1456V448H584ZM584 24H1456V176H584Z" style="fill: #000000; stroke: none" /></g><g transform="translate(8.5000,0) scale(0.00415039)"><path d="M680 1336 824 1280Q624 856 368 568Q568 616 736 672L776 544Q504 440 168 384L120 520Q296 688 456 944Q320 912 168 896L136 1048Q320 1272 440 1656L592 1608Q480 1272 312 1056Q440 1064 544 1080ZM776 312 808 168Q520 64 168 -16L104 152Q480 224 776 312ZM1800 1304 1816 1152 1352 1072 1368 816 1904 928 1920 776 1392 664Q1416 512 1472 360Q1608 488 1720 656L1864 584Q1720 352 1544 192Q1672 -8 1744 -8Q1784 -8 1800 264L1960 192Q1920 -40 1868.0 -116.0Q1816 -192 1744 -192Q1600 -192 1424 96Q1208 -48 936 -144L848 16Q1152 120 1344 256Q1272 408 1232 632L824 544L800 696L1216 784Q1200 904 1192 1048L888 1000L864 1152L1184 1200Q1176 1408 1176 1656H1336Q1336 1416 1344 1232ZM1560 1648Q1640 1560 1728 1440L1608 1344Q1536 1456 1432 1560Z" style="fill: #000000; stroke: none" /></g><g transform="translate(17.0000,0) scale(0.00415039)"><path d="M112 1320H360V1656H520V1320H680V1168H520V776L704 864L736 720Q632 656 520 600V40Q520 -88 480.0 -136.0Q440 -184 320 -184Q224 -184 144 -152L112 8Q200 -24 296 -24Q328 -24 344.0 -4.0Q360 16 360 72V528L160 448L96 616L360 712V1168H112ZM1184 1616Q1344 1336 1448 1008L1304 944Q1200 1280 1048 1552ZM1584 1600H1736Q1736 720 1624 432Q1800 224 1936 -40L1824 -168Q1704 80 1560 264Q1424 0 1160 -176L1080 -32Q1368 160 1488 528Q1584 816 1584 1600ZM816 1448H968V264Q1088 352 1200 456L1264 328Q1112 192 912 56L816 160Z" style="fill: #000000; stroke: none" /></g><g transform="translate(25.5000,0) scale(0.00415039)"><path d="M1008 1680 1176 1632Q1152 1600 1120 1568Q1520 1248 1960 1072L1864 912Q1440 1096 1024 1464Q648 1112 168 896L80 1040Q728 1344 1008 1680ZM416 992H1624V832H416ZM1696 616V-184H1536V-56H496V-184H336V616ZM496 96H1536V464H496Z" style="fill: #000000; stroke: none" /></g><g transform="translate(34.0000,0) scale(0.00415039)"><path d="M664 40 456 -248H336L472 40H352V304H664Z" style="fill: #000000; stroke: none" /></g><g transform="translate(42.5000,0) scale(0.00415039)"><path d="M568 1664 720 1616Q704 1592 688 1560Q896 1440 1072 1280L960 1144Q792 1320 608 1448Q416 1200 168 1040L88 1176Q424 1408 568 1664ZM336 1104H896V968H680V744H1024V608H680V16Q680 -96 648.0 -140.0Q616 -184 512 -184Q432 -184 368 -168L344 -8Q424 -32 512 -32Q528 -32 528 40V608H168V744H528V968H336ZM296 504 432 456Q344 184 240 0L96 72Q224 288 296 504ZM912 504Q1008 296 1080 48L928 -24Q872 216 784 440ZM1968 632 1984 480 1744 424V-184H1592V392L1112 288L1088 440L1592 552V1656H1744V584ZM1248 1504Q1408 1392 1544 1240L1440 1104Q1296 1280 1144 1400ZM1152 1032Q1328 912 1472 752L1368 624Q1216 800 1048 920Z" style="fill: #000000; stroke: none" /></g><g transform="translate(51.0000,0) scale(0.00415039)"><path d="M1048 1664Q1112 1568 1144 1456H1936V1304H112V1456H944Q920 1544 880 1608ZM952 520H1104V352H1920V208H1104V-184H952V208H128V352H952ZM936 1424 1080 1384Q960 1136 864 1024Q976 1024 1112 1048Q1184 1128 1248 1216L1392 1168Q1160 856 872 648Q1072 680 1240 720Q1208 768 1168 816L1296 880Q1432 720 1528 520L1384 456Q1352 536 1312 608Q1008 536 656 488L616 616Q808 736 984 912Q848 888 696 872L672 1008Q840 1208 936 1424ZM352 1272Q480 1160 568 1024L424 944Q344 1072 208 1184ZM1704 1272 1840 1192Q1704 1016 1568 912L1448 1024Q1608 1144 1704 1272ZM520 872 640 784Q496 608 280 456L160 576Q384 728 520 872ZM1576 848Q1744 752 1888 616L1768 472Q1632 632 1472 736Z" style="fill: #000000; stroke: none" /></g><g transform="translate(61.7080,0) scale(0.00415039)"><path d="M102 852V1001H1026V852ZM102 442V592H1026V442Z" style="fill: #000000; stroke: none" /></g><g transform="translate(68.5977,0) scale(0.00415039)"><path d="M711 0H535V913Q535 956 535.5 1005.0Q536 1054 537.5 1102.5Q539 1151 540.5 1195.5Q542 1240 543 1274Q526 1256 513.0 1243.0Q500 1230 486.5 1218.0Q473 1206 458.0 1192.5Q443 1179 422 1161L274 1040L178 1163L561 1462H711Z" style="fill: #000000; stroke: none" /></g><g transform="translate(73.2793,0) scale(0.00415039)"><path d="M743 1462 199 0H20L565 1462Z" style="fill: #000000; stroke: none" /></g><g transform="translate(76.4502,0) scale(0.00415039)"><path d="M793 1319Q686 1319 599.0 1278.5Q512 1238 450.5 1162.0Q389 1086 355.5 977.0Q322 868 322 731Q322 590 351.5 480.5Q381 371 440.0 296.0Q499 221 587.0 182.0Q675 143 793 143Q882 143 962.0 160.5Q1042 178 1120 201V39Q1081 24 1042.0 12.5Q1003 1 960.5 -6.0Q918 -13 869.5 -16.5Q821 -20 762 -20Q598 -20 478.0 34.0Q358 88 279.5 187.0Q201 286 163.0 425.0Q125 564 125 733Q125 899 168.5 1037.0Q212 1175 296.5 1274.0Q381 1373 506.0 1428.0Q631 1483 793 1483Q901 1483 999.0 1461.0Q1097 1439 1176 1397L1098 1241Q1035 1273 961.0 1296.0Q887 1319 793 1319Z" style="fill: #000000; stroke: none" /></g></g></g></g>
   </g>
  </g>
 </g>
 <defs>
  <clipPath id="pae00c2b998">
   <rect x="33.858" y="24.72" width="401.742" height="223.757656" />
  </clipPath>
 </defs>
</svg>